<svg width="40" height="40" viewBox="0 0 40 40" fill="none" xmlns="http://www.w3.org/2000/svg">
<path fill-rule="evenodd" clip-rule="evenodd" d="M20 40C31.0457 40 40 31.0457 40 20C40 8.9543 31.0457 0 20 0C8.9543 0 0 8.9543 0 20C0 31.0457 8.9543 40 20 40ZM29.5883 28.3333H32.505C33.3383 28.3333 33.7567 27.9167 33.5133 27.0933C33.25 26.2733 32.305 25.085 31.0517 23.675C30.707 23.2678 30.2753 22.8447 29.8931 22.4701C29.5213 22.1056 29.1962 21.787 29.0433 21.5733C28.61 21.0167 28.7333 20.77 29.0433 20.275C29.0433 20.275 32.5967 15.27 32.9683 13.57C33.155 12.9517 32.9683 12.4983 32.0867 12.4983H29.17C28.4267 12.4983 28.0867 12.89 27.9 13.3233C27.9 13.3233 26.4167 16.9383 24.315 19.2867C23.635 19.9667 23.3267 20.1833 22.955 20.1833C22.77 20.1833 22.5017 19.9667 22.5017 19.35V13.5717C22.5017 12.83 22.2867 12.5 21.6683 12.5H17.0833C16.62 12.5 16.3417 12.845 16.3417 13.17C16.3417 13.4386 16.495 13.6284 16.6907 13.8706C17.0073 14.2625 17.4347 14.7915 17.5017 16.0133V20.3083C17.5017 21.2483 17.3317 21.42 16.9617 21.42C15.9733 21.42 13.5667 17.7883 12.14 13.6333C11.86 12.8267 11.58 12.5 10.835 12.5H7.91667C7.08333 12.5 6.91667 12.8917 6.91667 13.325C6.91667 14.0967 7.905 17.9283 11.5217 22.9967C13.9333 26.4567 17.33 28.3333 20.42 28.3333C22.275 28.3333 22.5033 27.915 22.5033 27.1983V24.5833C22.5033 23.75 22.6783 23.5833 23.2667 23.5833C23.6983 23.5833 24.44 23.8 26.1717 25.4683C26.7601 26.0568 27.2025 26.5487 27.5628 26.9494C28.4138 27.8957 28.8073 28.3333 29.5883 28.3333Z" fill="#A6A19D"/>
</svg>
