<svg width="40" height="40" viewBox="0 0 40 40" fill="none" xmlns="http://www.w3.org/2000/svg">
<circle cx="20" cy="20" r="20" fill="#A6A19D"/>
<g clip-path="url(#clip0_2006_57)">
<path d="M29.3917 17.525C28.9167 16.975 28.225 16.6667 27.5 16.6667H27.425C27.0084 12.925 23.825 10 19.975 10C16.125 10 12.9334 12.925 12.5167 16.6667H12.475C11.75 16.6667 11.0584 16.9833 10.5834 17.525C10.1084 18.075 9.90003 18.8 10 19.5167L10.8834 25.7C11.2334 28.15 13.3584 29.9917 15.8334 29.9917H24.1417C26.6167 29.9917 28.7417 28.15 29.0917 25.7L29.975 19.5167C30.075 18.8 29.8667 18.075 29.3917 17.525ZM19.975 11.6667C22.9084 11.6667 25.3417 13.8417 25.75 16.6667H14.2C14.6084 13.8417 17.0417 11.6667 19.975 11.6667ZM28.325 19.2833L27.4417 25.4667C27.2084 27.1 25.7917 28.325 24.1417 28.325H15.8334C14.1834 28.325 12.7667 27.0917 12.5334 25.4667L11.65 19.2833C11.6167 19.0417 11.6834 18.8083 11.8417 18.6167C12 18.4333 12.225 18.325 12.475 18.325H27.5C27.7417 18.325 27.9667 18.425 28.125 18.6083C28.2834 18.7917 28.3584 19.0333 28.3167 19.275L28.325 19.2833Z" fill="#FFFDF5"/>
</g>
<defs>
<clipPath id="clip0_2006_57">
<rect width="20" height="20" fill="white" transform="translate(10 10)"/>
</clipPath>
</defs>
</svg>
