<svg width="70" height="71" viewBox="0 0 70 71" fill="none" xmlns="http://www.w3.org/2000/svg">
<g clip-path="url(#clip0_2016_61)">
<path d="M44.0594 38.3718L44.5171 38.4116C47.6909 35.9753 47.8142 30.8033 44.7814 26.8165C41.8196 22.9465 36.9467 21.5796 33.728 23.7417C43.0684 27.619 35.7698 36.3784 44.0594 38.3718Z" fill="#FFFDF5"/>
<path d="M32.4814 25.6086L32.0041 25.5326C28.8359 27.968 28.7144 33.1409 31.7417 37.1277C34.7035 40.9986 39.5782 42.3646 42.796 40.2016C33.8376 37.5605 40.4777 28.6056 32.4814 25.6086Z" fill="#FFFDF5"/>
<path d="M58.7476 41.1854L58.6327 40.7433C55.2608 38.5869 50.3048 40.1938 47.5252 44.3585C44.8342 48.4194 45.1583 53.4329 48.2855 55.7238C48.859 45.6939 59.6144 49.6046 58.7476 41.1854Z" fill="#FFFDF5"/>
<path d="M50.4746 56.2678L50.5624 56.7395C53.9315 58.8932 58.8884 57.2835 61.6672 53.1234C64.3609 49.0635 64.0349 44.0481 60.9069 41.7581C61.3813 51.0179 50.6595 47.7892 50.4746 56.2678Z" fill="#FFFDF5"/>
<path d="M18.127 24.7982L18.1653 24.3441C15.7023 21.2016 10.4894 21.0913 6.47868 24.1087C2.58468 27.0566 1.21819 31.895 3.4057 35.082C7.29129 25.8055 16.1366 33.0274 18.127 24.7982Z" fill="#FFFDF5"/>
<path d="M5.28957 36.3152L5.21484 36.7887C7.67603 39.9266 12.8907 40.035 16.9015 37.0222C20.7964 34.0753 22.1611 29.235 19.9735 26.0471C17.333 34.9418 8.29249 28.375 5.28957 36.3152Z" fill="#FFFDF5"/>
<path d="M32.5872 54.3455L33.0084 54.1629C34.6271 50.52 32.249 45.916 27.6667 43.8476C23.2029 41.8487 18.2628 42.9533 16.4741 46.3766C26.5468 45.3637 24.3434 56.5158 32.5872 54.3455Z" fill="#FFFDF5"/>
<path d="M16.2752 48.6069L15.8203 48.7663C14.2044 52.4064 16.5862 57.0104 21.163 59.0806C25.6277 61.0814 30.5687 59.9759 32.3565 56.5507C23.2141 58.4699 24.7441 47.4577 16.2752 48.6069Z" fill="#FFFDF5"/>
<path d="M50.938 24.7465L50.7661 25.171C52.1915 28.8918 57.1428 30.5163 61.869 28.7982C66.4635 27.1134 69.2012 22.8875 68.0523 19.2029C61.5944 26.9382 55.2756 17.4597 50.938 24.7465Z" fill="#FFFDF5"/>
<path d="M66.6176 17.4763L66.8287 17.0444C65.4043 13.3273 60.4511 11.7056 55.7267 13.4191C51.1303 15.1011 48.3936 19.3306 49.5425 23.0153C54.6974 15.2818 61.3963 24.1922 66.6176 17.4763Z" fill="#FFFDF5"/>
</g>
<defs>
<clipPath id="clip0_2016_61">
<rect width="70" height="69.4517" fill="white" transform="translate(0 0.966064)"/>
</clipPath>
</defs>
</svg>
