<svg width="70" height="71" viewBox="0 0 70 71" fill="none" xmlns="http://www.w3.org/2000/svg">
<path d="M50.3125 27.0104H26.25V31.4597C25.0148 31.7099 23.9046 32.3758 23.1073 33.3448C22.3101 34.3137 21.8747 35.5262 21.875 36.7771V49.7993C21.875 51.2383 22.4512 52.6184 23.4768 53.636C24.5023 54.6535 25.8933 55.2252 27.3438 55.2252H49.2188C50.6692 55.2252 52.0602 54.6535 53.0857 53.636C54.1113 52.6184 54.6875 51.2383 54.6875 49.7993V36.7771C54.6878 35.5262 54.2524 34.3137 53.4552 33.3448C52.6579 32.3758 51.5477 31.7099 50.3125 31.4597V29.1808C52.1332 29.4415 53.7983 30.3439 55.0034 31.7229C56.2085 33.1018 56.8728 34.8652 56.875 36.6903V46.5437H59.0625V36.7771C59.0727 34.3656 58.1854 32.0353 56.5706 30.233C54.9559 28.4306 52.7274 27.2831 50.3125 27.0104ZM28.4375 29.1808H48.125V31.3512H28.4375V29.1808ZM52.5 36.7771V49.7993C52.5 50.6627 52.1543 51.4908 51.5389 52.1013C50.9236 52.7118 50.089 53.0548 49.2188 53.0548H27.3438C26.4735 53.0548 25.6389 52.7118 25.0236 52.1013C24.4082 51.4908 24.0625 50.6627 24.0625 49.7993V36.7771C24.0625 35.9137 24.4082 35.0856 25.0236 34.4751C25.6389 33.8645 26.4735 33.5215 27.3438 33.5215H49.2188C50.089 33.5215 50.9236 33.8645 51.5389 34.4751C52.1543 35.0856 52.5 35.9137 52.5 36.7771Z" fill="white"/>
<path d="M37.1875 35.6919H28.4375V37.8623H37.1875V35.6919Z" fill="white"/>
<path d="M54.6875 57.3956H19.6875V18.329H24.0625C24.1665 20.607 25.0367 22.7848 26.5344 24.5145L26.8844 24.8401H49.6781L50.0063 24.5145C51.727 22.4869 52.617 19.8919 52.5 17.2438V11.8179C52.5 10.6667 52.0391 9.56259 51.2186 8.74854C50.3981 7.9345 49.2853 7.47717 48.125 7.47717H13.125C11.9647 7.47717 10.8519 7.9345 10.0314 8.74854C9.21094 9.56259 8.75 10.6667 8.75 11.8179V63.9067H59.0625V61.7363C59.0625 60.5851 58.6016 59.481 57.7811 58.667C56.9606 57.8529 55.8478 57.3956 54.6875 57.3956ZM10.9375 61.7363V11.8179C10.9375 11.2423 11.168 10.6902 11.5782 10.2832C11.9884 9.8762 12.5448 9.64754 13.125 9.64754H48.125C48.7052 9.64754 49.2616 9.8762 49.6718 10.2832C50.082 10.6902 50.3125 11.2423 50.3125 11.8179V17.2438C50.3793 19.1754 49.8195 21.0773 48.7156 22.6697H27.8469C26.7416 21.078 26.1817 19.1756 26.25 17.2438V16.1586H17.5V59.5659H54.6875C55.2677 59.5659 55.8241 59.7946 56.2343 60.2016C56.6445 60.6087 56.875 61.1607 56.875 61.7363H10.9375Z" fill="white"/>
</svg>
