<svg width="70" height="71" viewBox="0 0 70 71" fill="none" xmlns="http://www.w3.org/2000/svg">
<path d="M22.505 67.0109L20.5376 14.8364H52.6758L55.7004 66.3754L22.505 67.0109ZM19.3444 23.7654L20.9335 65.9029L17.8111 62.491L19.3444 23.7654ZM13.9358 11.4533L15.5279 7.26097L17.1912 11.5443L13.9358 11.4533ZM48.108 6.00055L52.0024 13.1702H19.4613L16.6775 6.00055H48.108ZM54.1503 13.8846C54.1365 13.6449 54.0035 13.4463 53.8185 13.3173L49.237 4.88195C49.104 4.63624 48.8456 4.48381 48.5643 4.48381H15.5639C15.3154 4.48381 15.0831 4.60439 14.9401 4.80611C14.8446 4.88726 14.7605 4.98281 14.7131 5.10871L12.1273 11.9143C12.0402 12.1434 12.07 12.4005 12.2076 12.6037C12.3451 12.8077 12.5737 12.9328 12.8206 12.9397L17.7859 13.0777L18.1963 14.1341L16.2717 62.742C16.2633 62.9399 16.3343 63.1341 16.4696 63.2812L21.0588 68.2963C21.2041 68.4548 21.4097 68.5443 21.6252 68.5443H21.6398L56.5244 67.8769C56.7315 67.8724 56.9287 67.7852 57.0709 67.6335C57.2115 67.4818 57.2842 67.2801 57.2719 67.0738L54.1503 13.8846Z" fill="white"/>
<path d="M42.6375 34.0746C42.0107 41.025 34.6324 38.0689 35.0421 43.9334L35.1116 44.2421C37.4032 45.8149 40.881 44.8101 42.9058 41.9821C44.8664 39.2231 44.7556 35.7354 42.6375 34.0746Z" fill="white"/>
<path d="M41.1302 33.6481L41.0805 33.3189C38.7898 31.7476 35.3119 32.7532 33.2871 35.5789C31.325 38.3378 31.4366 41.8263 33.5562 43.4872C33.4385 37.0471 40.8077 39.5292 41.1302 33.6481Z" fill="white"/>
</svg>
