<svg width="40" height="40" viewBox="0 0 40 40" fill="none" xmlns="http://www.w3.org/2000/svg">
<circle cx="20" cy="20" r="20" fill="#A6A19D"/>
<g clip-path="url(#clip0_2006_53)">
<path d="M24.5833 11.5975C23.645 11.6121 22.7271 11.8741 21.9223 12.3569C21.1176 12.8398 20.4545 13.5264 20 14.3475C19.5455 13.5264 18.8825 12.8398 18.0777 12.3569C17.273 11.8741 16.355 11.6121 15.4167 11.5975C13.9208 11.6625 12.5114 12.3169 11.4965 13.4177C10.4816 14.5185 9.94355 15.9763 10 17.4725C10 21.2617 13.9883 25.4 17.3333 28.2059C18.0802 28.8335 19.0245 29.1776 20 29.1776C20.9755 29.1776 21.9198 28.8335 22.6667 28.2059C26.0117 25.4 30 21.2617 30 17.4725C30.0565 15.9763 29.5185 14.5185 28.5035 13.4177C27.4886 12.3169 26.0792 11.6625 24.5833 11.5975ZM21.5958 26.9309C21.1492 27.307 20.584 27.5133 20 27.5133C19.416 27.5133 18.8509 27.307 18.4042 26.9309C14.1225 23.3384 11.6667 19.8917 11.6667 17.4725C11.6097 16.4181 11.972 15.384 12.6745 14.5956C13.377 13.8073 14.3627 13.3287 15.4167 13.2642C16.4706 13.3287 17.4564 13.8073 18.1589 14.5956C18.8614 15.384 19.2236 16.4181 19.1667 17.4725C19.1667 17.6935 19.2545 17.9055 19.4108 18.0618C19.567 18.2181 19.779 18.3059 20 18.3059C20.221 18.3059 20.433 18.2181 20.5893 18.0618C20.7455 17.9055 20.8333 17.6935 20.8333 17.4725C20.7764 16.4181 21.1386 15.384 21.8411 14.5956C22.5436 13.8073 23.5294 13.3287 24.5833 13.2642C25.6373 13.3287 26.623 13.8073 27.3255 14.5956C28.028 15.384 28.3903 16.4181 28.3333 17.4725C28.3333 19.8917 25.8775 23.3384 21.5958 26.9275V26.9309Z" fill="#FFFDF5"/>
</g>
<defs>
<clipPath id="clip0_2006_53">
<rect width="20" height="20" fill="white" transform="translate(10 10)"/>
</clipPath>
</defs>
</svg>
