<svg width="40" height="40" viewBox="0 0 40 40" fill="none" xmlns="http://www.w3.org/2000/svg">
<circle cx="20" cy="20" r="20" fill="#A6A19D"/>
<g clip-path="url(#clip0_2006_49)">
<path d="M29.7558 28.5774L24.7817 23.6033C26.1372 21.9454 26.8037 19.83 26.6432 17.6946C26.4828 15.5591 25.5077 13.567 23.9197 12.1304C22.3316 10.6937 20.2522 9.92235 18.1114 9.97588C15.9706 10.0294 13.9323 10.9037 12.418 12.418C10.9038 13.9322 10.0295 15.9705 9.97594 18.1113C9.92241 20.2521 10.6938 22.3316 12.1304 23.9196C13.5671 25.5076 15.5592 26.4827 17.6946 26.6431C19.8301 26.8036 21.9455 26.1371 23.6033 24.7816L28.5775 29.7558C28.7347 29.9076 28.9452 29.9916 29.1637 29.9897C29.3822 29.9878 29.5912 29.9001 29.7457 29.7456C29.9002 29.5911 29.9878 29.3821 29.9897 29.1636C29.9916 28.9451 29.9076 28.7346 29.7558 28.5774ZM18.3333 24.9999C17.0148 24.9999 15.7259 24.6089 14.6295 23.8764C13.5332 23.1439 12.6787 22.1027 12.1741 20.8845C11.6696 19.6663 11.5375 18.3259 11.7948 17.0327C12.052 15.7395 12.6869 14.5516 13.6193 13.6192C14.5516 12.6869 15.7395 12.0519 17.0327 11.7947C18.3259 11.5375 19.6664 11.6695 20.8846 12.1741C22.1027 12.6787 23.1439 13.5331 23.8765 14.6295C24.609 15.7258 25 17.0147 25 18.3333C24.998 20.1008 24.295 21.7953 23.0452 23.0451C21.7954 24.2949 20.1008 24.998 18.3333 24.9999Z" fill="#FFFDF5"/>
</g>
<defs>
<clipPath id="clip0_2006_49">
<rect width="20" height="20" fill="white" transform="translate(10 10)"/>
</clipPath>
</defs>
</svg>
