<svg width="40" height="40" viewBox="0 0 40 40" fill="none" xmlns="http://www.w3.org/2000/svg">
<circle cx="20" cy="20" r="20" fill="#A6A19D"/>
<g clip-path="url(#clip0_2006_31)">
<path d="M20 20C20.9889 20 21.9556 19.7068 22.7779 19.1573C23.6001 18.6079 24.241 17.827 24.6194 16.9134C24.9978 15.9998 25.0969 14.9945 24.9039 14.0246C24.711 13.0546 24.2348 12.1637 23.5355 11.4645C22.8363 10.7652 21.9454 10.289 20.9755 10.0961C20.0055 9.90315 19.0002 10.0022 18.0866 10.3806C17.173 10.759 16.3921 11.3999 15.8427 12.2222C15.2932 13.0444 15 14.0111 15 15C15.0013 16.3257 15.5285 17.5967 16.4659 18.5341C17.4033 19.4715 18.6743 19.9987 20 20ZM20 11.6667C20.6593 11.6667 21.3037 11.8622 21.8519 12.2284C22.4001 12.5947 22.8273 13.1153 23.0796 13.7244C23.3319 14.3335 23.3979 15.0037 23.2693 15.6503C23.1407 16.2969 22.8232 16.8909 22.357 17.357C21.8908 17.8232 21.2969 18.1407 20.6503 18.2693C20.0037 18.3979 19.3335 18.3319 18.7244 18.0796C18.1153 17.8273 17.5947 17.4001 17.2284 16.8519C16.8622 16.3037 16.6667 15.6593 16.6667 15C16.6667 14.1159 17.0179 13.2681 17.643 12.643C18.2681 12.0179 19.1159 11.6667 20 11.6667Z" fill="#FFFDF5"/>
<path d="M20 21.6666C18.0116 21.6688 16.1052 22.4597 14.6991 23.8658C13.2931 25.2718 12.5022 27.1782 12.5 29.1666C12.5 29.3876 12.5878 29.5996 12.7441 29.7559C12.9004 29.9122 13.1123 30 13.3333 30C13.5543 30 13.7663 29.9122 13.9226 29.7559C14.0789 29.5996 14.1667 29.3876 14.1667 29.1666C14.1667 27.6195 14.7812 26.1358 15.8752 25.0418C16.9692 23.9479 18.4529 23.3333 20 23.3333C21.5471 23.3333 23.0308 23.9479 24.1248 25.0418C25.2188 26.1358 25.8333 27.6195 25.8333 29.1666C25.8333 29.3876 25.9211 29.5996 26.0774 29.7559C26.2337 29.9122 26.4457 30 26.6667 30C26.8877 30 27.0996 29.9122 27.2559 29.7559C27.4122 29.5996 27.5 29.3876 27.5 29.1666C27.4978 27.1782 26.7069 25.2718 25.3009 23.8658C23.8948 22.4597 21.9884 21.6688 20 21.6666Z" fill="#FFFDF5"/>
</g>
<defs>
<clipPath id="clip0_2006_31">
<rect width="20" height="20" fill="white" transform="translate(10 10)"/>
</clipPath>
</defs>
</svg>
